# xmcd
#
# Track frame offsets:
#	150
#	12367
#	29292
#	39360
#	50007
#	66382
#	77165
#	88382
#	102637
#	113807
#	130460
#	144970
#
# Disc length: 2133 seconds
#
# Revision: 1
# Processed by: cddbd v1.5.2PL0 Copyright (c) Steve Scherf et al.
# Submitted via: audiograbber 1.83.01
#
DISCID=aa08530c
DTITLE=J.G. Duke - Prime Cuts
DYEAR=1989
DGENRE=Country
TTITLE0=On the highway hell is loose
TTITLE1=Lonely but free
TTITLE2=A fool out of me
TTITLE3=Big train
TTITLE4=Amazing grave (trad. - Arr. Duke)
TTITLE5=Take me back lord
TTITLE6=Southern moon
TTITLE7=Drunk, lost and crazy
TTITLE8=Fast train to Memphis
TTITLE9=No one loves you (like I do)
TTITLE10=Blues Train
TTITLE11=Konky Tonkin' Woman
EXTD=Record service AG, Postfach 117, CH-4133 Pratteln Switzerland. \n\nGreets 
EXTD=Coni
EXTT0=
EXTT1=
EXTT2=
EXTT3=
EXTT4=
EXTT5=
EXTT6=
EXTT7=
EXTT8=
EXTT9=
EXTT10=
EXTT11=
PLAYORDER=
